<?xml version="1.0" encoding="UTF-8"?>
<svg id="_レイヤー_2" data-name="レイヤー 2" xmlns="http://www.w3.org/2000/svg" viewBox="0 0 939.95 1024.22">
  <g id="_レイヤー_1-2" data-name="レイヤー 1">
    <g>
      <rect y="279.32" width="74.55" height="143.66"/>
      <rect x="296.57" y="279.32" width="74.55" height="143.66"/>
      <path d="M646.62,86.7c-14.59-26.46-35.65-47.53-63.2-63.2-27.55-15.66-60.51-23.5-98.86-23.5-19.45,0-38.63,2.57-57.53,7.7-18.92,5.14-36.46,13.78-52.67,25.93-16.21,12.15-29.72,28.5-40.52,49.02h-.81c-9.72-20.52-22.69-36.87-38.89-49.02-16.21-12.15-33.77-20.79-52.67-25.93-18.92-5.13-37.82-7.7-56.72-7.7-38.89,0-72.12,7.84-99.67,23.5-27.55,15.67-48.62,36.74-63.2,63.2C7.29,113.18,0,142.35,0,174.22v11.34h74.55v-11.34c0-20.52,4.86-39.16,14.59-55.91,9.72-16.74,22.82-29.98,39.3-39.7,16.47-9.72,34.97-14.59,55.51-14.59s40.11,5,57.13,14.99c17.02,10,30.51,23.23,40.52,39.7,9.99,16.48,14.99,34.98,14.99,55.51v11.34h74.55v-11.34c0-20.52,4.99-39.02,14.99-55.51,9.99-16.47,23.63-29.7,40.92-39.7,17.28-9.99,36.19-14.99,56.72-14.99s39.83,4.86,56.32,14.59c16.47,9.72,29.58,22.97,39.3,39.7,9.72,16.75,14.59,35.39,14.59,55.91v11.34h74.55v-11.34c0-31.87-7.29-61.04-21.88-87.51Z"/>
      <rect x="593.95" y="279.32" width="74.55" height="143.66"/>
    </g>
    <g>
      <path d="M327.31,582.72c2.72-8.59,6.07-16.76,10.18-24.42,12.15-22.69,28.63-40.24,49.43-52.67,20.79-12.42,43.62-18.64,68.47-18.64s48.48,6.22,69.28,18.64c20.79,12.43,37.4,29.98,49.83,52.67,4.18,7.64,7.6,15.81,10.37,24.42h77.05c-2.42-10.59-5.47-20.77-9.23-30.5-10.53-27.27-25.26-50.64-44.16-70.09-18.92-19.45-41.33-34.16-67.26-44.16-25.93-9.99-54.57-14.99-85.89-14.99-39.98,0-75.9,8.65-107.77,25.93-31.88,17.29-57.13,42.14-75.76,74.55-10.16,17.66-17.52,37.43-22.14,59.26h77.6Z"/>
      <path d="M589.65,676.49c-2.98,15.28-7.85,29.39-14.74,42.25-12.15,22.69-28.5,40.52-49.02,53.48-20.54,12.96-43.76,19.45-69.69,19.45s-48.49-6.2-69.28-18.64c-20.8-12.42-37.27-30.11-49.43-53.07-6.94-13.11-11.83-27.63-14.81-43.46h-78.78v347.73h74.55v-252h1.62c9.18,16.21,21.19,30.66,36.06,43.35,14.85,12.7,31.87,22.56,51.05,29.58,19.17,7.01,39.3,10.53,60.37,10.53,38.35,0,72.65-8.65,102.91-25.93,30.25-17.28,54.15-41.86,71.71-73.74,12.97-23.55,21.14-50.07,24.53-79.52h-77.04Z"/>
    </g>
    <g>
      <path d="M857.12,676.49c-2.97,8.75-6.82,17.16-11.57,25.23-12.69,21.6-29.98,38.76-51.86,51.45-21.88,12.69-46.59,19.04-74.14,19.04h-51.05v64.01h48.62c42.68,0,80.76-9.19,114.25-27.55,33.5-18.37,59.96-43.09,79.41-74.14,11.29-18.03,19.27-37.39,24.01-58.05h-77.68Z"/>
      <path d="M793.69,506.03c21.88,12.69,39.17,29.84,51.86,51.45,4.74,8.07,8.6,16.48,11.57,25.23h77.67c-4.74-20.67-12.72-40.02-24.01-58.05-19.45-31.07-45.91-55.78-79.41-74.14-33.49-18.37-71.57-27.55-114.25-27.55h-48.62v64.01h51.05c27.55,0,52.26,6.34,74.14,19.04Z"/>
    </g>
    <g>
      <path d="M754.13,185.55c2.48-6.11,5.38-12.06,8.77-17.82,12.69-21.6,29.98-38.76,51.86-51.45,21.88-12.69,46.59-19.04,74.14-19.04h51.05V33.22h-48.62c-42.68,0-80.76,9.19-114.25,27.55-33.5,18.37-59.96,43.09-79.41,74.14-9.93,15.86-17.3,32.74-22.16,50.64h78.62Z"/>
      <path d="M814.76,363.42c-21.88-12.69-39.17-29.84-51.86-51.45-6.07-10.32-10.64-21.21-13.81-32.64h-76.98c4.43,23.47,12.93,45.3,25.55,65.46,19.45,31.07,45.91,55.78,79.41,74.14,33.49,18.37,71.57,27.55,114.25,27.55h48.62v-64.01h-51.05c-27.55,0-52.26-6.34-74.14-19.04Z"/>
    </g>
  </g>
</svg>