<?xml version="1.0" encoding="UTF-8"?>
<svg id="_レイヤー_2" data-name="レイヤー 2" xmlns="http://www.w3.org/2000/svg" viewBox="0 0 1154.42 1257.91">
  <defs>
    <style>
      .cls-1 {
        fill: red;
      }
    </style>
  </defs>
  <g id="_レイヤー_1-2" data-name="レイヤー 1">
    <g>
      <rect class="cls-1" y="343.05" width="91.56" height="176.43"/>
      <rect class="cls-1" x="364.24" y="343.05" width="91.56" height="176.43"/>
      <path class="cls-1" d="M794.16,106.49c-17.91-32.5-43.79-58.37-77.62-77.62C682.7,9.63,642.22,0,595.12,0c-23.88,0-47.44,3.16-70.66,9.45-23.23,6.31-44.78,16.92-64.69,31.85-19.9,14.93-36.5,35-49.76,60.21h-1c-11.94-25.21-27.87-45.28-47.77-60.21-19.9-14.93-41.47-25.53-64.69-31.85C273.33,3.16,250.12,0,226.9,0c-47.77,0-88.57,9.63-122.41,28.86-33.84,19.25-59.71,45.13-77.62,77.62C8.96,139,0,174.83,0,213.97v13.92h91.56v-13.92c0-25.21,5.97-48.1,17.91-68.67,11.94-20.56,28.02-36.82,48.27-48.76,20.23-11.94,42.95-17.91,68.17-17.91s49.26,6.14,70.16,18.41c20.9,12.28,37.48,28.53,49.76,48.76,12.27,20.25,18.41,42.96,18.41,68.17v13.92h91.56v-13.92c0-25.21,6.13-47.92,18.41-68.17,12.27-20.23,29.02-36.48,50.26-48.76,21.23-12.27,44.44-18.41,69.66-18.41s48.92,5.97,69.17,17.91c20.23,11.94,36.32,28.21,48.27,48.76,11.94,20.57,17.91,43.46,17.91,68.67v13.92h91.56v-13.92c0-39.14-8.96-74.97-26.87-107.48Z"/>
      <rect class="cls-1" x="729.47" y="343.05" width="91.56" height="176.43"/>
    </g>
    <g>
      <path class="cls-1" d="M402,715.68c3.34-10.55,7.46-20.58,12.5-29.99,14.93-27.87,35.16-49.42,60.71-64.69,25.53-15.25,53.57-22.89,84.09-22.89s59.54,7.63,85.09,22.89c25.53,15.27,45.93,36.82,61.2,64.69,5.13,9.38,9.33,19.41,12.74,29.99h94.64c-2.97-13-6.72-25.51-11.34-37.46-12.94-33.49-31.02-62.2-54.24-86.08-23.23-23.88-50.75-41.95-82.6-54.24-31.85-12.27-67.02-18.41-105.49-18.41-49.11,0-93.22,10.62-132.36,31.85-39.15,21.24-70.16,51.75-93.05,91.56-12.47,21.69-21.52,45.97-27.2,72.79h95.31Z"/>
      <path class="cls-1" d="M724.19,830.84c-3.67,18.77-9.64,36.1-18.1,51.89-14.93,27.87-35,49.76-60.21,65.68-25.22,15.92-53.74,23.88-85.59,23.88s-59.56-7.62-85.09-22.89c-25.55-15.25-45.78-36.98-60.71-65.18-8.52-16.1-14.53-33.93-18.18-53.38h-96.76v427.07h91.56v-309.5h1.99c11.27,19.9,26.03,37.66,44.29,53.24,18.24,15.6,39.14,27.71,62.7,36.32,23.54,8.61,48.27,12.94,74.14,12.94,47.1,0,89.22-10.62,126.39-31.85,37.15-21.23,66.51-51.41,88.07-90.56,15.93-28.93,25.96-61.49,30.12-97.67h-94.62Z"/>
    </g>
    <g>
      <path class="cls-1" d="M1052.68,830.84c-3.65,10.74-8.38,21.08-14.2,30.99-15.58,26.53-36.82,47.6-63.69,63.19-26.87,15.58-57.22,23.39-91.06,23.39h-62.7v78.62h59.71c52.42,0,99.19-11.29,140.32-33.84,41.14-22.56,73.64-52.92,97.53-91.06,13.86-22.15,23.67-45.92,29.49-71.29h-95.4Z"/>
      <path class="cls-1" d="M974.79,621.49c26.87,15.58,48.11,36.65,63.69,63.19,5.83,9.91,10.56,20.24,14.21,30.99h95.39c-5.82-25.38-15.63-49.16-29.49-71.29-23.88-38.16-56.38-68.51-97.53-91.06-41.13-22.56-87.9-33.84-140.32-33.84h-59.71v78.62h62.7c33.84,0,64.19,7.79,91.06,23.39Z"/>
    </g>
    <g>
      <path class="cls-1" d="M926.2,227.89c3.05-7.5,6.61-14.81,10.77-21.89,15.58-26.53,36.82-47.6,63.69-63.19,26.87-15.58,57.22-23.39,91.06-23.39h62.7V40.8h-59.71c-52.42,0-99.19,11.29-140.32,33.84-41.14,22.56-73.64,52.92-97.53,91.06-12.19,19.48-21.25,40.21-27.22,62.19h96.56Z"/>
      <path class="cls-1" d="M1000.66,446.34c-26.87-15.58-48.11-36.65-63.69-63.19-7.45-12.67-13.07-26.05-16.96-40.09h-94.54c5.44,28.82,15.88,55.63,31.39,80.4,23.88,38.16,56.38,68.51,97.53,91.06,41.13,22.56,87.9,33.84,140.32,33.84h59.71v-78.62h-62.7c-33.84,0-64.19-7.79-91.06-23.39Z"/>
    </g>
  </g>
</svg>