<?xml version="1.0" encoding="UTF-8"?>
<svg id="_レイヤー_2" data-name="レイヤー 2" xmlns="http://www.w3.org/2000/svg" viewBox="0 0 2789.72 1022.41">
  <defs>
    <style>
      .cls-1 {
        fill: red;
      }
    </style>
  </defs>
  <g id="_レイヤー_1-2" data-name="レイヤー 1">
    <g>
      <rect class="cls-1" x="1010" y="447.64" width="126.77" height="271.63"/>
      <path class="cls-1" d="M127.01,288.18c1.19-31.72,9.31-60.75,24.56-87.01,16.53-28.46,38.8-50.98,66.83-67.52,28.01-16.53,59.47-24.8,94.39-24.8s68.21,8.5,97.14,25.49c28.94,17.01,51.89,39.51,68.9,67.52,15.66,25.85,24.02,54.64,25.24,86.32h127.26c1.22-31.68,9.56-60.48,25.24-86.32,16.99-28.01,40.17-50.51,69.58-67.52,29.39-16.99,61.53-25.49,96.45-25.49s67.73,8.27,95.76,24.8c28.01,16.53,50.29,39.05,66.83,67.52,15.25,26.26,23.37,55.29,24.56,87.01h126.78c-1.18-51.04-13.41-97.99-36.97-140.75-24.8-45-60.63-80.82-107.48-107.48C945.24,13.33,889.2,0,823.99,0c-33.07,0-65.69,4.37-97.83,13.09-32.17,8.74-62.01,23.42-89.56,44.09-27.56,20.67-50.53,48.46-68.9,83.36h-1.38c-16.53-34.9-38.58-62.69-66.14-83.36-27.56-20.67-57.42-35.35-89.56-44.09C378.45,4.37,346.31,0,314.16,0c-66.14,0-122.63,13.33-169.48,39.96-46.85,26.65-82.67,62.48-107.48,107.48C13.64,190.2,1.41,237.15.23,288.18h126.78Z"/>
      <rect class="cls-1" y="447.64" width="126.77" height="271.63"/>
      <rect class="cls-1" x="504.31" y="447.64" width="126.77" height="271.63"/>
    </g>
    <g>
      <path class="cls-1" d="M1410.98,578.03c-37.2-21.57-66.61-50.75-88.19-87.5-8.07-13.72-14.62-28.02-19.67-42.9h-132.08c8.05,35.14,21.64,68.05,40.83,98.7,33.07,52.83,78.07,94.86,135.03,126.08,56.95,31.24,121.71,46.85,194.28,46.85h82.67v-108.85h-86.81c-46.85,0-88.87-10.79-126.08-32.38Z"/>
      <path class="cls-1" d="M1541.19,16.54c-72.58,0-137.34,15.63-194.28,46.85-56.97,31.24-101.96,73.27-135.03,126.08-19.19,30.67-32.78,63.58-40.83,98.72h132.08c5.05-14.88,11.6-29.19,19.67-42.92,21.57-36.73,50.98-65.9,88.19-87.5,37.2-21.57,79.23-32.38,126.08-32.38h86.81V16.54h-82.67Z"/>
    </g>
    <g>
      <path class="cls-1" d="M1789.29,288.18c5.14-20.81,12.39-40.21,21.96-58.07,20.67-38.58,48.68-68.42,84.05-89.56,35.35-21.12,74.17-31.69,116.43-31.69s82.44,10.57,117.81,31.69c35.35,21.14,63.6,50.98,84.74,89.56,9.73,17.77,17.11,37.18,22.36,58.07h129.68c-4.46-24.02-10.76-46.86-19.08-68.4-17.91-46.38-42.95-86.12-75.1-119.19-32.17-33.07-70.27-58.09-114.37-75.1C2113.7,8.51,2065,0,2011.73,0c-67.99,0-129.07,14.7-183.26,44.09-54.21,29.41-97.14,71.65-128.83,126.77-19.8,34.44-33.42,73.55-40.85,117.32h130.5Z"/>
      <path class="cls-1" d="M2236.28,447.64c-5.1,19.68-12.13,38.16-21.31,55.3-20.67,38.58-48.46,68.9-83.36,90.94-34.92,22.05-74.41,33.07-118.5,33.07s-82.46-10.55-117.81-31.69c-35.37-21.12-63.38-51.2-84.05-90.25-9.34-17.64-16.46-36.82-21.58-57.37h-137.57v574.77h126.77v-428.53h2.76c15.61,27.56,36.04,52.15,61.32,73.72,25.25,21.59,54.19,38.37,86.81,50.29,32.6,11.93,66.83,17.91,102.66,17.91,65.21,0,123.54-14.7,174.99-44.09,51.43-29.39,92.08-71.18,121.94-125.39,19.6-35.59,32.72-75.17,39.46-118.69h-132.51Z"/>
    </g>
    <g>
      <path class="cls-1" d="M2549.78,157.78c37.2,21.57,66.61,50.75,88.19,87.5,8.07,13.72,14.62,28.03,19.67,42.91h132.08c-8.05-35.14-21.64-68.06-40.83-98.71-33.07-52.83-78.07-94.86-135.03-126.08-56.95-31.24-121.71-46.85-194.28-46.85h-82.67v108.85h86.81c46.85,0,88.87,10.79,126.08,32.38Z"/>
      <path class="cls-1" d="M2657.63,447.64c-5.05,14.88-11.6,29.18-19.67,42.91-21.57,36.73-50.98,65.9-88.19,87.5-37.2,21.57-79.23,32.38-126.08,32.38h-86.81v108.85h82.67c72.58,0,137.34-15.63,194.28-46.85,56.97-31.24,101.96-73.27,135.03-126.08,19.19-30.66,32.78-63.57,40.83-98.71h-132.08Z"/>
    </g>
  </g>
</svg>